solid Endstop_Z_3mm
facet normal -1.0 -9.67603962981225e-017 -2.44178992428235e-032
outer loop
vertex 1.40378341173665e-016 60.775 5.5
vertex 5.82747063359581e-015 2.0 0.0
vertex 5.82747063359581e-015 2.0 5.5
endloop
endfacet
facet normal -1.0 -9.67603962981225e-017 -2.44178992428235e-032
outer loop
vertex 5.82747063359581e-015 2.0 0.0
vertex 1.40378341173665e-016 60.775 5.5
vertex 1.40378341173665e-016 60.775 -3.52495810318487e-016
endloop
endfacet
facet normal 0.0 -1.0 0.0
outer loop
vertex 5.82747063359581e-015 2.0 5.5
vertex 10.0 2.0 0.0
vertex 10.0 2.0 5.5
endloop
endfacet
facet normal 0.0 -1.0 0.0
outer loop
vertex 5.82747063359581e-015 2.0 5.5
vertex 5.82747063359581e-015 2.0 0.0
vertex 10.0 2.0 0.0
endloop
endfacet
facet normal 1.0 -0.0 -0.0
outer loop
vertex 10.0 20.4028644561768 5.5
vertex 10.0 2.0 5.5
vertex 10.0 20.4028644561768 0.0
endloop
endfacet
facet normal 1.0 -0.0 -0.0
outer loop
vertex 10.0 20.4028644561768 0.0
vertex 10.0 2.0 5.5
vertex 10.0 2.0 0.0
endloop
endfacet
facet normal -0.606296971134628 -0.795238318237354 -6.2327580956394e-018
outer loop
vertex 10.0 20.4028644561768 5.5
vertex 10.0 20.4028644561768 0.0
vertex 10.7467565536499 19.8335304260254 0.0
endloop
endfacet
facet normal -0.606296971134628 -0.795238318237355 -6.23275809563941e-018
outer loop
vertex 10.0 20.4028644561768 5.5
vertex 10.7467565536499 19.8335304260254 0.0
vertex 10.7467565536499 19.8335304260254 5.5
endloop
endfacet
facet normal -0.47479312005467 -0.880097433895107 0.0
outer loop
vertex 10.7467565536499 19.8335304260254 5.5
vertex 10.7467565536499 19.8335304260254 0.0
vertex 11.5731973648071 19.3876838684082 0.0
endloop
endfacet
facet normal -0.47479312005467 -0.880097433895107 1.68954419919049e-017
outer loop
vertex 10.7467565536499 19.8335304260254 5.5
vertex 11.5731973648071 19.3876838684082 0.0
vertex 11.5731973648071 19.3876838684082 5.5
endloop
endfacet
facet normal -0.331659654206484 -0.943399106302118 -5.25392004097484e-018
outer loop
vertex 11.5731973648071 19.3876838684082 5.5
vertex 11.5731973648071 19.3876838684082 0.0
vertex 12.459080696106 19.076244354248 0.0
endloop
endfacet
facet normal -0.331659654206484 -0.943399106302118 0.0
outer loop
vertex 11.5731973648071 19.3876838684082 5.5
vertex 12.459080696106 19.076244354248 0.0
vertex 12.459080696106 19.076244354248 5.5
endloop
endfacet
facet normal -0.18040347675709 -0.983592692924238 2.51960934908856e-018
outer loop
vertex 12.459080696106 19.076244354248 5.5
vertex 12.459080696106 19.076244354248 0.0
vertex 13.3827075958252 18.9068393707275 0.0
endloop
endfacet
facet normal -0.18040347675709 -0.983592692924238 -2.51960934908856e-018
outer loop
vertex 12.459080696106 19.076244354248 5.5
vertex 13.3827075958252 18.9068393707275 0.0
vertex 13.3827075958252 18.9068393707275 5.5
endloop
endfacet
facet normal -0.0247296463281771 -0.999694175531939 6.19757250221663e-019
outer loop
vertex 13.3827075958252 18.9068393707275 5.5
vertex 13.3827075958252 18.9068393707275 0.0
vertex 14.3214540481567 18.883617401123 0.0
endloop
endfacet
facet normal -0.0247296463281771 -0.999694175531939 0.0
outer loop
vertex 13.3827075958252 18.9068393707275 5.5
vertex 14.3214540481567 18.883617401123 0.0
vertex 14.3214540481567 18.883617401123 5.5
endloop
endfacet
facet normal 0.131551413803165 -0.991309349056282 -2.49999180474619e-018
outer loop
vertex 14.3214540481567 18.883617401123 5.5
vertex 14.3214540481567 18.883617401123 0.0
vertex 15.2523279190063 19.0071487426758 0.0
endloop
endfacet
facet normal 0.131551413803165 -0.991309349056282 0.0
outer loop
vertex 14.3214540481567 18.883617401123 5.5
vertex 15.2523279190063 19.0071487426758 0.0
vertex 15.2523279190063 19.0071487426758 5.5
endloop
endfacet
facet normal 0.28461160297958 -0.958642913419483 0.0
outer loop
vertex 15.2523279190063 19.0071487426758 5.5
vertex 15.2523279190063 19.0071487426758 0.0
vertex 16.1525249481201 19.2744083404541 0.0
endloop
endfacet
facet normal 0.28461160297958 -0.958642913419483 5.17038370605036e-018
outer loop
vertex 15.2523279190063 19.0071487426758 5.5
vertex 16.1525249481201 19.2744083404541 0.0
vertex 16.1525249481201 19.2744083404541 5.5
endloop
endfacet
facet normal 0.430697664704877 -0.902496272356715 5.49202658796437e-018
outer loop
vertex 16.1525249481201 19.2744083404541 5.5
vertex 16.1525249481201 19.2744083404541 0.0
vertex 17.0 19.6788482666016 0.0
endloop
endfacet
facet normal 0.430697664704877 -0.902496272356715 0.0
outer loop
vertex 16.1525249481201 19.2744083404541 5.5
vertex 17.0 19.6788482666016 0.0
vertex 17.0 19.6788482666016 5.5
endloop
endfacet
facet normal 0.569803747370549 -0.821780803792885 1.52323617092404e-018
outer loop
vertex 17.0 19.6788482666016 5.5
vertex 17.0 19.6788482666016 0.0
vertex 17.1357250213623 19.7729568481445 0.0
endloop
endfacet
facet normal 0.569803747370549 -0.821780803792885 1.52323617092404e-018
outer loop
vertex 17.0 19.6788482666016 5.5
vertex 17.1357250213623 19.7729568481445 0.0
vertex 17.1357250213623 19.7729568481445 5.5
endloop
endfacet
facet normal 0.697304291570565 -0.716775226244095 1.74641075256399e-018
outer loop
vertex 17.1357250213623 19.7729568481445 5.5
vertex 17.1357250213623 19.7729568481445 0.0
vertex 17.2541065216064 19.8881225585938 0.0
endloop
endfacet
facet normal 0.697304291570564 -0.716775226244095 -1.74641075256399e-018
outer loop
vertex 17.1357250213623 19.7729568481445 5.5
vertex 17.2541065216064 19.8881225585938 0.0
vertex 17.2541065216064 19.8881225585938 5.5
endloop
endfacet
facet normal 0.805762367550191 -0.592238977980942 -1.5535599231433e-018
outer loop
vertex 17.3519191741943 20.0212001800537 0.0
vertex 17.2541065216064 19.8881225585938 5.5
vertex 17.2541065216064 19.8881225585938 0.0
endloop
endfacet
facet normal 0.805762367550192 -0.592238977980942 -0.0
outer loop
vertex 17.3519191741943 20.0212001800537 5.5
vertex 17.2541065216064 19.8881225585938 5.5
vertex 17.3519191741943 20.0212001800537 0.0
endloop
endfacet
facet normal 0.892252519480991 -0.45153675540295 1.40293663883246e-018
outer loop
vertex 17.4264945983887 20.1685638427734 0.0
vertex 17.3519191741943 20.0212001800537 5.5
vertex 17.3519191741943 20.0212001800537 0.0
endloop
endfacet
facet normal 0.892252519480991 -0.45153675540295 1.40293663883246e-018
outer loop
vertex 17.4264945983887 20.1685638427734 5.5
vertex 17.3519191741943 20.0212001800537 5.5
vertex 17.4264945983887 20.1685638427734 0.0
endloop
endfacet
facet normal 0.954403092381504 -0.298520915938268 6.5579957169185e-019
outer loop
vertex 17.4757976531982 20.3261909484863 0.0
vertex 17.4264945983887 20.1685638427734 5.5
vertex 17.4264945983887 20.1685638427734 0.0
endloop
endfacet
facet normal 0.954403092381504 -0.298520915938268 -1.3115991433837e-018
outer loop
vertex 17.4757976531982 20.3261909484863 5.5
vertex 17.4264945983887 20.1685638427734 5.5
vertex 17.4757976531982 20.3261909484863 0.0
endloop
endfacet
facet normal 0.990523151905332 -0.137345861020732 -6.31865455059023e-019
outer loop
vertex 17.4984817504883 20.4897861480713 0.0
vertex 17.4757976531982 20.3261909484863 5.5
vertex 17.4757976531982 20.3261909484863 0.0
endloop
endfacet
facet normal 0.990523151905332 -0.137345861020732 -6.31865455059023e-019
outer loop
vertex 17.4984817504883 20.4897861480713 5.5
vertex 17.4757976531982 20.3261909484863 5.5
vertex 17.4984817504883 20.4897861480713 0.0
endloop
endfacet
facet normal 0.999620283845632 0.0275551832579195 -7.82675267420704e-020
outer loop
vertex 17.4939308166504 20.6548805236816 0.0
vertex 17.4984817504883 20.4897861480713 5.5
vertex 17.4984817504883 20.4897861480713 0.0
endloop
endfacet
facet normal 0.999620283845632 0.0275551832579195 -0.0
outer loop
vertex 17.4939308166504 20.6548805236816 5.5
vertex 17.4984817504883 20.4897861480713 5.5
vertex 17.4939308166504 20.6548805236816 0.0
endloop
endfacet
facet normal 0.981452452481378 0.191705721141255 -6.37713536586103e-019
outer loop
vertex 17.4622688293457 20.8169765472412 0.0
vertex 17.4939308166504 20.6548805236816 5.5
vertex 17.4939308166504 20.6548805236816 0.0
endloop
endfacet
facet normal 0.981452452481378 0.191705721141255 -6.37713536586103e-019
outer loop
vertex 17.4622688293457 20.8169765472412 5.5
vertex 17.4939308166504 20.6548805236816 5.5
vertex 17.4622688293457 20.8169765472412 0.0
endloop
endfacet
facet normal 0.936512243789408 0.350634877376065 -0.0
outer loop
vertex 17.4043579101563 20.9716510772705 0.0
vertex 17.4622688293457 20.8169765472412 5.5
vertex 17.4622688293457 20.8169765472412 0.0
endloop
endfacet
facet normal 0.936512243789408 0.350634877376065 -2.67323374165107e-018
outer loop
vertex 17.4043579101563 20.9716510772705 5.5
vertex 17.4622688293457 20.8169765472412 5.5
vertex 17.4043579101563 20.9716510772705 0.0
endloop
endfacet
facet normal 0.866025000406487 0.500000698670457 -0.0
outer loop
vertex 17.3217792510986 21.1146812438965 0.0
vertex 17.4043579101563 20.9716510772705 5.5
vertex 17.4043579101563 20.9716510772705 0.0
endloop
endfacet
facet normal 0.866025000406487 0.500000698670457 -2.89092100737491e-018
outer loop
vertex 17.3217792510986 21.1146812438965 5.5
vertex 17.4043579101563 20.9716510772705 5.5
vertex 17.3217792510986 21.1146812438965 0.0
endloop
endfacet
facet normal 0.771916234308349 0.63572425406871 -1.62164288780919e-018
outer loop
vertex 17.2167835235596 21.2421703338623 0.0
vertex 17.3217792510986 21.1146812438965 5.5
vertex 17.3217792510986 21.1146812438965 0.0
endloop
endfacet
facet normal 0.771916234308349 0.63572425406871 -1.62164288780919e-018
outer loop
vertex 17.2167835235596 21.2421703338623 5.5
vertex 17.3217792510986 21.1146812438965 5.5
vertex 17.2167835235596 21.2421703338623 0.0
endloop
endfacet
facet normal 0.656752358231782 0.754106318735624 -1.65993255762647e-018
outer loop
vertex 17.2167835235596 21.2421703338623 5.5
vertex 17.2167835235596 21.2421703338623 0.0
vertex 17.0922355651855 21.3506393432617 0.0
endloop
endfacet
facet normal 0.656752358231781 0.754106318735624 1.65993255762648e-018
outer loop
vertex 17.2167835235596 21.2421703338623 5.5
vertex 17.0922355651855 21.3506393432617 0.0
vertex 17.0922355651855 21.3506393432617 5.5
endloop
endfacet
facet normal 0.523667585513957 0.85192268421611 1.46934342578522e-018
outer loop
vertex 17.0922355651855 21.3506393432617 5.5
vertex 17.0922355651855 21.3506393432617 0.0
vertex 16.9515323638916 21.4371280670166 0.0
endloop
endfacet
facet normal 0.523667585513957 0.85192268421611 -1.46934342578522e-018
outer loop
vertex 17.0922355651855 21.3506393432617 5.5
vertex 16.9515323638916 21.4371280670166 0.0
vertex 16.9515323638916 21.4371280670166 5.5
endloop
endfacet
facet normal 0.376303629576056 0.926496399543941 -0.0
outer loop
vertex 16.9515323638916 21.4371280670166 5.5
vertex 16.9515323638916 21.4371280670166 0.0
vertex 16.7985153198242 21.4992771148682 0.0
endloop
endfacet
facet normal 0.376303629576056 0.926496399543941 -0.0
outer loop
vertex 16.9515323638916 21.4371280670166 5.5
vertex 16.7985153198242 21.4992771148682 0.0
vertex 16.7985153198242 21.4992771148682 5.5
endloop
endfacet
facet normal 0.218683587298774 0.975795823236675 1.28282631033916e-018
outer loop
vertex 16.7985153198242 21.4992771148682 5.5
vertex 16.7985153198242 21.4992771148682 0.0
vertex 16.6373538970947 21.5353946685791 0.0
endloop
endfacet
facet normal 0.218683587298775 0.975795823236675 -6.41413155169578e-019
outer loop
vertex 16.7985153198242 21.4992771148682 5.5
vertex 16.6373538970947 21.5353946685791 0.0
vertex 16.6373538970947 21.5353946685791 5.5
endloop
endfacet
facet normal 0.0550983994053386 0.998480929403747 -1.5671129359193e-019
outer loop
vertex 16.6373538970947 21.5353946685791 5.5
vertex 16.6373538970947 21.5353946685791 0.0
vertex 16.4724464416504 21.5444946289063 0.0
endloop
endfacet
facet normal 0.0550983994053386 0.998480929403747 -1.5671129359193e-019
outer loop
vertex 16.6373538970947 21.5353946685791 5.5
vertex 16.4724464416504 21.5444946289063 0.0
vertex 16.4724464416504 21.5444946289063 5.5
endloop
endfacet
facet normal -0.110022109969884 0.993929139988246 -0.0
outer loop
vertex 16.4724464416504 21.5444946289063 5.5
vertex 16.4724464416504 21.5444946289063 0.0
vertex 16.3082885742188 21.5263233184814 0.0
endloop
endfacet
facet normal -0.110022109969884 0.993929139988246 6.29699159641124e-019
outer loop
vertex 16.4724464416504 21.5444946289063 5.5
vertex 16.3082885742188 21.5263233184814 0.0
vertex 16.3082885742188 21.5263233184814 5.5
endloop
endfacet
facet normal -0.272098123464262 0.962269510691899 -0.0
outer loop
vertex 16.3082885742188 21.5263233184814 5.5
vertex 16.3082885742188 21.5263233184814 0.0
vertex 16.1493625640869 21.4813842773437 0.0
endloop
endfacet
facet normal -0.272098123464262 0.962269510691899 6.50440923784903e-019
outer loop
vertex 16.3082885742188 21.5263233184814 5.5
vertex 16.1493625640869 21.4813842773437 0.0
vertex 16.1493625640869 21.4813842773437 5.5
endloop
endfacet
facet normal -0.426767857013345 0.904361208931607 -1.38417019633647e-018
outer loop
vertex 16.1493625640869 21.4813842773437 5.5
vertex 16.1493625640869 21.4813842773437 0.0
vertex 16.0 21.4109001159668 0.0
endloop
endfacet
facet normal -0.426767857013345 0.904361208931607 -1.38417019633647e-018
outer loop
vertex 16.1493625640869 21.4813842773437 5.5
vertex 16.0 21.4109001159668 0.0
vertex 16.0 21.4109001159668 5.5
endloop
endfacet
facet normal -0.425781805348975 0.904825869564839 -0.0
outer loop
vertex 16.0 21.4109001159668 5.5
vertex 16.0 21.4109001159668 0.0
vertex 15.3942880630493 21.1258716583252 0.0
endloop
endfacet
facet normal -0.425781805348975 0.904825869564839 -0.0
outer loop
vertex 16.0 21.4109001159668 5.5
vertex 15.3942880630493 21.1258716583252 0.0
vertex 15.3942880630493 21.1258716583252 5.5
endloop
endfacet
facet normal -0.26892013072365 0.963162480213788 2.53151449692185e-018
outer loop
vertex 15.3942880630493 21.1258716583252 5.5
vertex 15.3942880630493 21.1258716583252 0.0
vertex 14.7495250701904 20.9458503723145 0.0
endloop
endfacet
facet normal -0.26892013072365 0.963162480213788 -0.0
outer loop
vertex 15.3942880630493 21.1258716583252 5.5
vertex 14.7495250701904 20.9458503723145 0.0
vertex 14.7495250701904 20.9458503723145 5.5
endloop
endfacet
facet normal -0.104527418990368 0.994522005125685 1.22584692032295e-018
outer loop
vertex 14.7495250701904 20.9458503723145 5.5
vertex 14.7495250701904 20.9458503723145 0.0
vertex 14.0837697982788 20.8758773803711 0.0
endloop
endfacet
facet normal -0.104527418990368 0.994522005125685 -1.22584692032295e-018
outer loop
vertex 14.7495250701904 20.9458503723145 5.5
vertex 14.0837697982788 20.8758773803711 0.0
vertex 14.0837697982788 20.8758773803711 5.5
endloop
endfacet
facet normal 0.0627916764195355 0.998026655642235 6.10771226554486e-019
outer loop
vertex 14.0837697982788 20.8758773803711 5.5
vertex 14.0837697982788 20.8758773803711 0.0
vertex 13.4156684875488 20.917911529541 0.0
endloop
endfacet
facet normal 0.0627916764195355 0.998026655642235 -1.22154245310897e-018
outer loop
vertex 14.0837697982788 20.8758773803711 5.5
vertex 13.4156684875488 20.917911529541 0.0
vertex 13.4156684875488 20.917911529541 5.5
endloop
endfacet
facet normal 0.228349722112196 0.973579172133054 2.50442813701814e-018
outer loop
vertex 13.4156684875488 20.917911529541 5.5
vertex 13.4156684875488 20.917911529541 0.0
vertex 12.7639322280884 21.0707740783691 0.0
endloop
endfacet
facet normal 0.228349722112196 0.973579172133054 2.50442813701814e-018
outer loop
vertex 13.4156684875488 20.917911529541 5.5
vertex 12.7639322280884 21.0707740783691 0.0
vertex 12.7639322280884 21.0707740783691 5.5
endloop
endfacet
facet normal 0.387514048163746 0.921863798223873 1.05796889624797e-017
outer loop
vertex 12.7639322280884 21.0707740783691 5.5
vertex 12.7639322280884 21.0707740783691 0.0
vertex 12.1468152999878 21.3301849365234 0.0
endloop
endfacet
facet normal 0.387514048163746 0.921863798223873 -0.0
outer loop
vertex 12.7639322280884 21.0707740783691 5.5
vertex 12.1468152999878 21.3301849365234 0.0
vertex 12.1468152999878 21.3301849365234 5.5
endloop
endfacet
facet normal 0.53582826775979 0.844326990845101 -0.0
outer loop
vertex 12.1468152999878 21.3301849365234 5.5
vertex 12.1468152999878 21.3301849365234 0.0
vertex 11.5816030502319 21.6888809204102 0.0
endloop
endfacet
facet normal 0.53582826775979 0.844326990845101 -5.7756199045666e-018
outer loop
vertex 12.1468152999878 21.3301849365234 5.5
vertex 11.5816030502319 21.6888809204102 0.0
vertex 11.5816030502319 21.6888809204102 5.5
endloop
endfacet
facet normal 0.669129452261658 0.743145864629558 -6.56202963312182e-018
outer loop
vertex 11.5816030502319 21.6888809204102 5.5
vertex 11.5816030502319 21.6888809204102 0.0
vertex 11.0841255187988 22.1368103027344 0.0
endloop
endfacet
facet normal 0.669129452261658 0.743145864629558 -1.31240592662436e-017
outer loop
vertex 11.5816030502319 21.6888809204102 5.5
vertex 11.0841255187988 22.1368103027344 0.0
vertex 11.0841255187988 22.1368103027344 5.5
endloop
endfacet
facet normal 0.783694309020995 0.621146705704944 6.22245351883109e-018
outer loop
vertex 10.6683149337769 22.661434173584 0.0
vertex 11.0841255187988 22.1368103027344 5.5
vertex 11.0841255187988 22.1368103027344 0.0
endloop
endfacet
facet normal 0.783694309020995 0.621146705704944 -0.0
outer loop
vertex 10.6683149337769 22.661434173584 5.5
vertex 11.0841255187988 22.1368103027344 5.5
vertex 10.6683149337769 22.661434173584 0.0
endloop
endfacet
facet normal 0.876307210882845 0.481752708507933 1.11296939789373e-017
outer loop
vertex 10.3458185195923 23.2480545043945 0.0
vertex 10.6683149337769 22.661434173584 5.5
vertex 10.6683149337769 22.661434173584 0.0
endloop
endfacet
facet normal 0.876307210882845 0.481752708507933 -0.0
outer loop
vertex 10.3458185195923 23.2480545043945 5.5
vertex 10.6683149337769 22.661434173584 5.5
vertex 10.3458185195923 23.2480545043945 0.0
endloop
endfacet
facet normal 0.944375978436971 0.328867771834235 1.03275579521904e-017
outer loop
vertex 10.1256675720215 23.8802394866943 0.0
vertex 10.3458185195923 23.2480545043945 5.5
vertex 10.3458185195923 23.2480545043945 0.0
endloop
endfacet
facet normal 0.944375978436971 0.328867771834235 5.16377897609518e-018
outer loop
vertex 10.1256675720215 23.8802394866943 5.5
vertex 10.3458185195923 23.2480545043945 5.5
vertex 10.1256675720215 23.8802394866943 0.0
endloop
endfacet
facet normal 0.985996032968802 0.166768770966827 -0.0
outer loop
vertex 10.0140285491943 24.5402889251709 0.0
vertex 10.1256675720215 23.8802394866943 5.5
vertex 10.1256675720215 23.8802394866943 0.0
endloop
endfacet
facet normal 0.985996032968802 0.166768770966827 2.47288148646584e-018
outer loop
vertex 10.0140285491943 24.5402889251709 5.5
vertex 10.1256675720215 23.8802394866943 5.5
vertex 10.0140285491943 24.5402889251709 0.0
endloop
endfacet
facet normal 1.0 -0.0 -0.0
outer loop
vertex 10.0140285491943 25.2097110748291 0.0
vertex 10.0140285491943 24.5402889251709 5.5
vertex 10.0140285491943 24.5402889251709 0.0
endloop
endfacet
facet normal 1.0 -0.0 -0.0
outer loop
vertex 10.0140285491943 25.2097110748291 5.5
vertex 10.0140285491943 24.5402889251709 5.5
vertex 10.0140285491943 25.2097110748291 0.0
endloop
endfacet
facet normal 0.985995953725954 -0.166769239477925 -2.47289557958483e-018
outer loop
vertex 10.1256675720215 25.869758605957 0.0
vertex 10.0140285491943 25.2097110748291 5.5
vertex 10.0140285491943 25.2097110748291 0.0
endloop
endfacet
facet normal 0.985995953725954 -0.166769239477925 -0.0
outer loop
vertex 10.1256675720215 25.869758605957 5.5
vertex 10.0140285491943 25.2097110748291 5.5
vertex 10.1256675720215 25.869758605957 0.0
endloop
endfacet
facet normal 0.944376286593744 -0.32886688693058 5.16374950220216e-018
outer loop
vertex 10.3458185195923 26.5019454956055 0.0
vertex 10.1256675720215 25.869758605957 5.5
vertex 10.1256675720215 25.869758605957 0.0
endloop
endfacet
facet normal 0.944376286593744 -0.32886688693058 -5.16374950220216e-018
outer loop
vertex 10.3458185195923 26.5019454956055 5.5
vertex 10.1256675720215 25.869758605957 5.5
vertex 10.3458185195923 26.5019454956055 0.0
endloop
endfacet
facet normal 0.876307210882846 -0.481752708507931 -5.56484698946862e-018
outer loop
vertex 10.6683149337769 27.088565826416 0.0
vertex 10.3458185195923 26.5019454956055 5.5
vertex 10.3458185195923 26.5019454956055 0.0
endloop
endfacet
facet normal 0.876307210882846 -0.481752708507931 5.56484698946862e-018
outer loop
vertex 10.6683149337769 27.088565826416 5.5
vertex 10.3458185195923 26.5019454956055 5.5
vertex 10.6683149337769 27.088565826416 0.0
endloop
endfacet
facet normal 0.783694309020997 -0.621146705704942 -6.22245351883103e-018
outer loop
vertex 11.0841255187988 27.6131896972656 0.0
vertex 10.6683149337769 27.088565826416 5.5
vertex 10.6683149337769 27.088565826416 0.0
endloop
endfacet
facet normal 0.783694309020997 -0.621146705704942 -1.24449070376621e-017
outer loop
vertex 11.0841255187988 27.6131896972656 5.5
vertex 10.6683149337769 27.088565826416 5.5
vertex 11.0841255187988 27.6131896972656 0.0
endloop
endfacet
facet normal 0.669129452261656 -0.74314586462956 0.0
outer loop
vertex 11.0841255187988 27.6131896972656 5.5
vertex 11.0841255187988 27.6131896972656 0.0
vertex 11.5816030502319 28.0611190795898 0.0
endloop
endfacet
facet normal 0.669129452261656 -0.74314586462956 0.0
outer loop
vertex 11.0841255187988 27.6131896972656 5.5
vertex 11.5816030502319 28.0611190795898 0.0
vertex 11.5816030502319 28.0611190795898 5.5
endloop
endfacet
facet normal 0.53582826775979 -0.844326990845101 -5.77561990456659e-018
outer loop
vertex 11.5816030502319 28.0611190795898 5.5
vertex 11.5816030502319 28.0611190795898 0.0
vertex 12.1468152999878 28.4198150634766 0.0
endloop
endfacet
facet normal 0.53582826775979 -0.844326990845101 1.15512398091332e-017
outer loop
vertex 11.5816030502319 28.0611190795898 5.5
vertex 12.1468152999878 28.4198150634766 0.0
vertex 12.1468152999878 28.4198150634766 5.5
endloop
endfacet
facet normal 0.387514048163747 -0.921863798223873 5.28984448123986e-018
outer loop
vertex 12.1468152999878 28.4198150634766 5.5
vertex 12.1468152999878 28.4198150634766 0.0
vertex 12.7639322280884 28.6792259216309 0.0
endloop
endfacet
facet normal 0.387514048163747 -0.921863798223873 0.0
outer loop
vertex 12.1468152999878 28.4198150634766 5.5
vertex 12.7639322280884 28.6792259216309 0.0
vertex 12.7639322280884 28.6792259216309 5.5
endloop
endfacet
facet normal 0.228349722112196 -0.973579172133054 0.0
outer loop
vertex 12.7639322280884 28.6792259216309 5.5
vertex 12.7639322280884 28.6792259216309 0.0
vertex 13.4156684875488 28.832088470459 0.0
endloop
endfacet
facet normal 0.228349722112196 -0.973579172133054 -5.00885627403628e-018
outer loop
vertex 12.7639322280884 28.6792259216309 5.5
vertex 13.4156684875488 28.832088470459 0.0
vertex 13.4156684875488 28.832088470459 5.5
endloop
endfacet
facet normal 0.0627916764195313 -0.998026655642235 0.0
outer loop
vertex 13.4156684875488 28.832088470459 5.5
vertex 13.4156684875488 28.832088470459 0.0
vertex 14.0837697982788 28.8741226196289 0.0
endloop
endfacet
facet normal 0.0627916764195313 -0.998026655642235 0.0
outer loop
vertex 13.4156684875488 28.832088470459 5.5
vertex 14.0837697982788 28.8741226196289 0.0
vertex 14.0837697982788 28.8741226196289 5.5
endloop
endfacet
facet normal -0.104527418990364 -0.994522005125685 -1.22584692032295e-018
outer loop
vertex 14.0837697982788 28.8741226196289 5.5
vertex 14.0837697982788 28.8741226196289 0.0
vertex 14.7495250701904 28.8041496276855 0.0
endloop
endfacet
facet normal -0.104527418990364 -0.994522005125685 0.0
outer loop
vertex 14.0837697982788 28.8741226196289 5.5
vertex 14.7495250701904 28.8041496276855 0.0
vertex 14.7495250701904 28.8041496276855 5.5
endloop
endfacet
facet normal -0.26892013072365 -0.963162480213788 -2.53151449692185e-018
outer loop
vertex 14.7495250701904 28.8041496276855 5.5
vertex 14.7495250701904 28.8041496276855 0.0
vertex 15.3942880630493 28.6241283416748 0.0
endloop
endfacet
facet normal -0.26892013072365 -0.963162480213788 -2.53151449692185e-018
outer loop
vertex 14.7495250701904 28.8041496276855 5.5
vertex 15.3942880630493 28.6241283416748 0.0
vertex 15.3942880630493 28.6241283416748 5.5
endloop
endfacet
facet normal -0.425779472644264 -0.904826967256598 -5.38944859267119e-018
outer loop
vertex 15.3942880630493 28.6241283416748 5.5
vertex 15.3942880630493 28.6241283416748 0.0
vertex 16.0 28.3391017913818 0.0
endloop
endfacet
facet normal -0.425779472644264 -0.904826967256598 5.38944859267119e-018
outer loop
vertex 15.3942880630493 28.6241283416748 5.5
vertex 16.0 28.3391017913818 0.0
vertex 16.0 28.3391017913818 5.5
endloop
endfacet
facet normal -0.426777302207465 -0.904356751686257 1.38416337429887e-018
outer loop
vertex 16.0 28.3391017913818 5.5
vertex 16.0 28.3391017913818 0.0
vertex 16.1493625640869 28.2686157226563 0.0
endloop
endfacet
facet normal -0.426777302207465 -0.904356751686257 0.0
outer loop
vertex 16.0 28.3391017913818 5.5
vertex 16.1493625640869 28.2686157226563 0.0
vertex 16.1493625640869 28.2686157226563 5.5
endloop
endfacet
facet normal -0.27210881704694 -0.962266486834762 6.5043887982486e-019
outer loop
vertex 16.1493625640869 28.2686157226563 5.5
vertex 16.1493625640869 28.2686157226563 0.0
vertex 16.3082885742188 28.2236747741699 0.0
endloop
endfacet
facet normal -0.272108817046941 -0.962266486834762 -6.5043887982486e-019
outer loop
vertex 16.1493625640869 28.2686157226563 5.5
vertex 16.3082885742188 28.2236747741699 0.0
vertex 16.3082885742188 28.2236747741699 5.5
endloop
endfacet
facet normal -0.109999292562203 -0.99393166547596 0.0
outer loop
vertex 16.3082885742188 28.2236747741699 5.5
vertex 16.3082885742188 28.2236747741699 0.0
vertex 16.4724464416504 28.2055072784424 0.0
endloop
endfacet
facet normal -0.109999292562203 -0.99393166547596 0.0
outer loop
vertex 16.3082885742188 28.2236747741699 5.5
vertex 16.4724464416504 28.2055072784424 0.0
vertex 16.4724464416504 28.2055072784424 5.5
endloop
endfacet
facet normal 0.0550868858479678 -0.998481564680877 1.56711393298492e-019
outer loop
vertex 16.4724464416504 28.2055072784424 5.5
vertex 16.4724464416504 28.2055072784424 0.0
vertex 16.6373538970947 28.2146053314209 0.0
endloop
endfacet
facet normal 0.0550868858479678 -0.998481564680877 -1.56711393298492e-019
outer loop
vertex 16.4724464416504 28.2055072784424 5.5
vertex 16.6373538970947 28.2146053314209 0.0
vertex 16.6373538970947 28.2146053314209 5.5
endloop
endfacet
facet normal 0.218683587298758 -0.975795823236678 0.0
outer loop
vertex 16.6373538970947 28.2146053314209 5.5
vertex 16.6373538970947 28.2146053314209 0.0
vertex 16.7985153198242 28.2507228851318 0.0
endloop
endfacet
facet normal 0.218683587298758 -0.975795823236678 6.4141315516958e-019
outer loop
vertex 16.6373538970947 28.2146053314209 5.5
vertex 16.7985153198242 28.2507228851318 0.0
vertex 16.7985153198242 28.2507228851318 5.5
endloop
endfacet
facet normal 0.376313542885235 -0.926492373115484 0.0
outer loop
vertex 16.7985153198242 28.2507228851318 5.5
vertex 16.7985153198242 28.2507228851318 0.0
vertex 16.9515323638916 28.312873840332 0.0
endloop
endfacet
facet normal 0.376313542885235 -0.926492373115484 0.0
outer loop
vertex 16.7985153198242 28.2507228851318 5.5
vertex 16.9515323638916 28.312873840332 0.0
vertex 16.9515323638916 28.312873840332 5.5
endloop
endfacet
facet normal 0.523659203843347 -0.851927836280839 -1.46935231174703e-018
outer loop
vertex 16.9515323638916 28.312873840332 5.5
vertex 16.9515323638916 28.312873840332 0.0
vertex 17.0922355651855 28.3993606567383 0.0
endloop
endfacet
facet normal 0.523659203843347 -0.851927836280839 -1.46935231174703e-018
outer loop
vertex 16.9515323638916 28.312873840332 5.5
vertex 17.0922355651855 28.3993606567383 0.0
vertex 17.0922355651855 28.3993606567383 5.5
endloop
endfacet
facet normal 0.656752358231781 -0.754106318735624 1.65993255762647e-018
outer loop
vertex 17.0922355651855 28.3993606567383 5.5
vertex 17.0922355651855 28.3993606567383 0.0
vertex 17.2167835235596 28.5078296661377 0.0
endloop
endfacet
facet normal 0.656752358231781 -0.754106318735624 1.65993255762647e-018
outer loop
vertex 17.0922355651855 28.3993606567383 5.5
vertex 17.2167835235596 28.5078296661377 0.0
vertex 17.2167835235596 28.5078296661377 5.5
endloop
endfacet
facet normal 0.771916234308349 -0.63572425406871 1.62164288780919e-018
outer loop
vertex 17.3217792510986 28.6353187561035 0.0
vertex 17.2167835235596 28.5078296661377 5.5
vertex 17.2167835235596 28.5078296661377 0.0
endloop
endfacet
facet normal 0.771916234308349 -0.63572425406871 -0.0
outer loop
vertex 17.3217792510986 28.6353187561035 5.5
vertex 17.2167835235596 28.5078296661377 5.5
vertex 17.3217792510986 28.6353187561035 0.0
endloop
endfacet
facet normal 0.866027887544689 -0.499995697976377 1.44542677191214e-018
outer loop
vertex 17.4043579101563 28.7783508300781 0.0
vertex 17.3217792510986 28.6353187561035 5.5
vertex 17.3217792510986 28.6353187561035 0.0
endloop
endfacet
facet normal 0.866027887544689 -0.499995697976377 2.89085354382429e-018
outer loop
vertex 17.4043579101563 28.7783508300781 5.5
vertex 17.3217792510986 28.6353187561035 5.5
vertex 17.4043579101563 28.7783508300781 0.0
endloop
endfacet
facet normal 0.936510823940907 -0.350638669632319 -0.0
outer loop
vertex 17.4622688293457 28.9330234527588 0.0
vertex 17.4043579101563 28.7783508300781 5.5
vertex 17.4043579101563 28.7783508300781 0.0
endloop
endfacet
facet normal 0.936510823940907 -0.350638669632319 -0.0
outer loop
vertex 17.4622688293457 28.9330234527588 5.5
vertex 17.4043579101563 28.7783508300781 5.5
vertex 17.4622688293457 28.9330234527588 0.0
endloop
endfacet
facet normal 0.981452452481377 -0.191705721141262 6.37713536586146e-019
outer loop
vertex 17.4939308166504 29.0951194763184 0.0
vertex 17.4622688293457 28.9330234527588 5.5
vertex 17.4622688293457 28.9330234527588 0.0
endloop
endfacet
facet normal 0.981452452481377 -0.191705721141262 -6.37713536586146e-019
outer loop
vertex 17.4939308166504 29.0951194763184 5.5
vertex 17.4622688293457 28.9330234527588 5.5
vertex 17.4939308166504 29.0951194763184 0.0
endloop
endfacet
facet normal 0.999620283845632 -0.0275551832579186 -0.0
outer loop
vertex 17.4984817504883 29.2602138519287 0.0
vertex 17.4939308166504 29.0951194763184 5.5
vertex 17.4939308166504 29.0951194763184 0.0
endloop
endfacet
facet normal 0.999620283845632 -0.0275551832579186 7.8267526742065e-020
outer loop
vertex 17.4984817504883 29.2602138519287 5.5
vertex 17.4939308166504 29.0951194763184 5.5
vertex 17.4984817504883 29.2602138519287 0.0
endloop
endfacet
facet normal 0.990523151905332 0.137345861020732 6.31865455059023e-019
outer loop
vertex 17.4757976531982 29.4238090515137 0.0
vertex 17.4984817504883 29.2602138519287 5.5
vertex 17.4984817504883 29.2602138519287 0.0
endloop
endfacet
facet normal 0.990523151905332 0.137345861020732 -0.0
outer loop
vertex 17.4757976531982 29.4238090515137 5.5
vertex 17.4984817504883 29.2602138519287 5.5
vertex 17.4757976531982 29.4238090515137 0.0
endloop
endfacet
facet normal 0.954403092381501 0.298520915938278 6.55799571691895e-019
outer loop
vertex 17.4264945983887 29.5814361572266 0.0
vertex 17.4757976531982 29.4238090515137 5.5
vertex 17.4757976531982 29.4238090515137 0.0
endloop
endfacet
facet normal 0.954403092381501 0.298520915938278 6.55799571691895e-019
outer loop
vertex 17.4264945983887 29.5814361572266 5.5
vertex 17.4757976531982 29.4238090515137 5.5
vertex 17.4264945983887 29.5814361572266 0.0
endloop
endfacet
facet normal 0.892252519480995 0.451536755402943 -0.0
outer loop
vertex 17.3519191741943 29.7287998199463 0.0
vertex 17.4264945983887 29.5814361572266 5.5
vertex 17.4264945983887 29.5814361572266 0.0
endloop
endfacet
facet normal 0.892252519480995 0.451536755402943 -0.0
outer loop
vertex 17.3519191741943 29.7287998199463 5.5
vertex 17.4264945983887 29.5814361572266 5.5
vertex 17.3519191741943 29.7287998199463 0.0
endloop
endfacet
facet normal 0.805766418155661 0.592233466947451 1.55352320058261e-018
outer loop
vertex 17.2541065216064 29.8618793487549 0.0
vertex 17.3519191741943 29.7287998199463 5.5
vertex 17.3519191741943 29.7287998199463 0.0
endloop
endfacet
facet normal 0.805766418155661 0.592233466947451 -1.55352320058261e-018
outer loop
vertex 17.2541065216064 29.8618793487549 5.5
vertex 17.3519191741943 29.7287998199463 5.5
vertex 17.2541065216064 29.8618793487549 0.0
endloop
endfacet
facet normal 0.697298358213991 0.716780998375426 1.74642481626465e-018
outer loop
vertex 17.2541065216064 29.8618793487549 5.5
vertex 17.2541065216064 29.8618793487549 0.0
vertex 17.1357250213623 29.9770431518555 0.0
endloop
endfacet
facet normal 0.697298358213991 0.716780998375426 -1.74642481626465e-018
outer loop
vertex 17.2541065216064 29.8618793487549 5.5
vertex 17.1357250213623 29.9770431518555 0.0
vertex 17.1357250213623 29.9770431518555 5.5
endloop
endfacet
facet normal 0.56980374737056 0.821780803792877 -0.0
outer loop
vertex 17.1357250213623 29.9770431518555 5.5
vertex 17.1357250213623 29.9770431518555 0.0
vertex 17.0 30.0711517333984 0.0
endloop
endfacet
facet normal 0.56980374737056 0.821780803792877 1.52323617092403e-018
outer loop
vertex 17.1357250213623 29.9770431518555 5.5
vertex 17.0 30.0711517333984 0.0
vertex 17.0 30.0711517333984 5.5
endloop
endfacet
facet normal 0.430697664704872 0.902496272356717 -0.0
outer loop
vertex 17.0 30.0711517333984 5.5
vertex 17.0 30.0711517333984 0.0
vertex 16.1525249481201 30.4755916595459 0.0
endloop
endfacet
facet normal 0.430697664704872 0.902496272356717 5.49202658796439e-018
outer loop
vertex 17.0 30.0711517333984 5.5
vertex 16.1525249481201 30.4755916595459 0.0
vertex 16.1525249481201 30.4755916595459 5.5
endloop
endfacet
facet normal 0.284611602979586 0.958642913419481 -0.0
outer loop
vertex 16.1525249481201 30.4755916595459 5.5
vertex 16.1525249481201 30.4755916595459 0.0
vertex 15.2523279190063 30.7428512573242 0.0
endloop
endfacet
facet normal 0.284611602979586 0.958642913419481 5.17038370605035e-018
outer loop
vertex 16.1525249481201 30.4755916595459 5.5
vertex 15.2523279190063 30.7428512573242 0.0
vertex 15.2523279190063 30.7428512573242 5.5
endloop
endfacet
facet normal 0.131551413803165 0.991309349056282 -0.0
outer loop
vertex 15.2523279190063 30.7428512573242 5.5
vertex 15.2523279190063 30.7428512573242 0.0
vertex 14.3214540481567 30.866382598877 0.0
endloop
endfacet
facet normal 0.131551413803165 0.991309349056282 2.49999180474619e-018
outer loop
vertex 15.2523279190063 30.7428512573242 5.5
vertex 14.3214540481567 30.866382598877 0.0
vertex 14.3214540481567 30.866382598877 5.5
endloop
endfacet
facet normal -0.0247296463281801 0.999694175531939 -0.0
outer loop
vertex 14.3214540481567 30.866382598877 5.5
vertex 14.3214540481567 30.866382598877 0.0
vertex 13.3827075958252 30.8431606292725 0.0
endloop
endfacet
facet normal -0.0247296463281801 0.999694175531939 -0.0
outer loop
vertex 14.3214540481567 30.866382598877 5.5
vertex 13.3827075958252 30.8431606292725 0.0
vertex 13.3827075958252 30.8431606292725 5.5
endloop
endfacet
facet normal -0.180403476757087 0.983592692924238 -2.51960934908856e-018
outer loop
vertex 13.3827075958252 30.8431606292725 5.5
vertex 13.3827075958252 30.8431606292725 0.0
vertex 12.459080696106 30.673755645752 0.0
endloop
endfacet
facet normal -0.180403476757087 0.983592692924238 -0.0
outer loop
vertex 13.3827075958252 30.8431606292725 5.5
vertex 12.459080696106 30.673755645752 0.0
vertex 12.459080696106 30.673755645752 5.5
endloop
endfacet
facet normal -0.331659654206484 0.943399106302118 -0.0
outer loop
vertex 12.459080696106 30.673755645752 5.5
vertex 12.459080696106 30.673755645752 0.0
vertex 11.5731973648071 30.3623161315918 0.0
endloop
endfacet
facet normal -0.331659654206483 0.943399106302119 -5.25392004097484e-018
outer loop
vertex 12.459080696106 30.673755645752 5.5
vertex 11.5731973648071 30.3623161315918 0.0
vertex 11.5731973648071 30.3623161315918 5.5
endloop
endfacet
facet normal -0.474793120054673 0.880097433895105 -0.0
outer loop
vertex 11.5731973648071 30.3623161315918 5.5
vertex 11.5731973648071 30.3623161315918 0.0
vertex 10.7467565536499 29.9164695739746 0.0
endloop
endfacet
facet normal -0.474793120054673 0.880097433895105 -5.63181399730161e-018
outer loop
vertex 11.5731973648071 30.3623161315918 5.5
vertex 10.7467565536499 29.9164695739746 0.0
vertex 10.7467565536499 29.9164695739746 5.5
endloop
endfacet
facet normal -0.606295686606153 0.795239297571979 6.2327657712703e-018
outer loop
vertex 10.7467565536499 29.9164695739746 5.5
vertex 10.7467565536499 29.9164695739746 0.0
vertex 10.0 29.3471374511719 0.0
endloop
endfacet
facet normal -0.606295686606153 0.795239297571979 1.24655315425406e-017
outer loop
vertex 10.7467565536499 29.9164695739746 5.5
vertex 10.0 29.3471374511719 0.0
vertex 10.0 29.3471374511719 5.5
endloop
endfacet
facet normal 1.0 -0.0 -0.0
outer loop
vertex 10.0 51.75 5.5
vertex 10.0 29.3471374511719 5.5
vertex 10.0 51.75 0.0
endloop
endfacet
facet normal 1.0 -0.0 -0.0
outer loop
vertex 10.0 51.75 0.0
vertex 10.0 29.3471374511719 5.5
vertex 10.0 29.3471374511719 0.0
endloop
endfacet
facet normal 0.0 -1.0 0.0
outer loop
vertex 10.0 51.75 5.5
vertex 15.0 51.75 0.0
vertex 15.0 51.75 5.5
endloop
endfacet
facet normal 0.0 -1.0 0.0
outer loop
vertex 10.0 51.75 5.5
vertex 10.0 51.75 0.0
vertex 15.0 51.75 0.0
endloop
endfacet
facet normal 1.0 -0.0 -0.0
outer loop
vertex 15.0 54.625 0.0
vertex 15.0 51.75 5.5
vertex 15.0 51.75 0.0
endloop
endfacet
facet normal -0.0 1.0 -0.0
outer loop
vertex 15.0 54.625 5.5
vertex 8.75 54.625 0.0
vertex 8.75 54.625 5.5
endloop
endfacet
facet normal 1.0 -0.0 -0.0
outer loop
vertex 15.0 60.775 -3.52495810318487e-016
vertex 15.0 57.875 5.5
vertex 15.0 57.875 0.0
endloop
endfacet
facet normal 1.0 -0.0 -0.0
outer loop
vertex 15.0 57.875 5.5
vertex 15.0 60.775 -3.52495810318487e-016
vertex 15.0 60.775 5.5
endloop
endfacet
facet normal -0.0 -0.0 1.0
outer loop
vertex 15.0 54.625 5.5
vertex 10.0 51.75 5.5
vertex 15.0 51.75 5.5
endloop
endfacet
facet normal -0.0 -0.0 1.0
outer loop
vertex 15.0 54.625 5.5
vertex 8.75 54.625 5.5
vertex 10.0 51.75 5.5
endloop
endfacet
facet normal -0.0 -0.0 1.0
outer loop
vertex 10.0 2.0 5.5
vertex 4.75 4.875 5.5
vertex 5.82747063359581e-015 2.0 5.5
endloop
endfacet
facet normal -0.0 -0.0 1.0
outer loop
vertex 10.0 20.4028644561768 5.5
vertex 4.75 4.875 5.5
vertex 10.0 2.0 5.5
endloop
endfacet
facet normal -0.0 -0.0 1.0
outer loop
vertex 10.0 20.4028644561768 5.5
vertex 4.75 44.875 5.5
vertex 4.75 4.875 5.5
endloop
endfacet
facet normal -0.0 -0.0 1.0
outer loop
vertex 11.0841255187988 22.1368103027344 5.5
vertex 10.6683149337769 22.661434173584 5.5
vertex 10.0 20.4028644561768 5.5
endloop
endfacet
facet normal -0.0 -0.0 1.0
outer loop
vertex 10.3458185195923 26.5019454956055 5.5
vertex 10.0 29.3471374511719 5.5
vertex 10.1256675720215 25.869758605957 5.5
endloop
endfacet
facet normal -0.0 -0.0 1.0
outer loop
vertex 4.75 4.875 5.5
vertex 3.0 4.875 5.5
vertex 5.82747063359581e-015 2.0 5.5
endloop
endfacet
facet normal -0.0 -0.0 1.0
outer loop
vertex 3.0 44.875 5.5
vertex 5.82747063359581e-015 2.0 5.5
vertex 3.0 4.875 5.5
endloop
endfacet
facet normal -0.0 -0.0 1.0
outer loop
vertex 10.6683149337769 22.661434173584 5.5
vertex 10.3458185195923 23.2480545043945 5.5
vertex 10.0 20.4028644561768 5.5
endloop
endfacet
facet normal -0.0 -0.0 1.0
outer loop
vertex 10.3458185195923 23.2480545043945 5.5
vertex 10.1256675720215 23.8802394866943 5.5
vertex 10.0 20.4028644561768 5.5
endloop
endfacet
facet normal -0.0 -0.0 1.0
outer loop
vertex 10.1256675720215 23.8802394866943 5.5
vertex 10.0140285491943 24.5402889251709 5.5
vertex 10.0 20.4028644561768 5.5
endloop
endfacet
facet normal -0.0 -0.0 1.0
outer loop
vertex 10.1256675720215 25.869758605957 5.5
vertex 10.0 29.3471374511719 5.5
vertex 10.0140285491943 25.2097110748291 5.5
endloop
endfacet
facet normal -0.0 -0.0 1.0
outer loop
vertex 11.5816030502319 21.6888809204102 5.5
vertex 11.0841255187988 22.1368103027344 5.5
vertex 10.0 20.4028644561768 5.5
endloop
endfacet
facet normal -0.0 -0.0 1.0
outer loop
vertex 11.5816030502319 21.6888809204102 5.5
vertex 10.0 20.4028644561768 5.5
vertex 10.7467565536499 19.8335304260254 5.5
endloop
endfacet
facet normal -0.0 -0.0 1.0
outer loop
vertex 12.1468152999878 21.3301849365234 5.5
vertex 11.5816030502319 21.6888809204102 5.5
vertex 10.7467565536499 19.8335304260254 5.5
endloop
endfacet
facet normal -0.0 -0.0 1.0
outer loop
vertex 12.1468152999878 21.3301849365234 5.5
vertex 10.7467565536499 19.8335304260254 5.5
vertex 11.5731973648071 19.3876838684082 5.5
endloop
endfacet
facet normal -0.0 -0.0 1.0
outer loop
vertex 12.7639322280884 21.0707740783691 5.5
vertex 12.1468152999878 21.3301849365234 5.5
vertex 11.5731973648071 19.3876838684082 5.5
endloop
endfacet
facet normal -0.0 -0.0 1.0
outer loop
vertex 12.7639322280884 21.0707740783691 5.5
vertex 11.5731973648071 19.3876838684082 5.5
vertex 12.459080696106 19.076244354248 5.5
endloop
endfacet
facet normal -0.0 -0.0 1.0
outer loop
vertex 13.4156684875488 20.917911529541 5.5
vertex 12.7639322280884 21.0707740783691 5.5
vertex 12.459080696106 19.076244354248 5.5
endloop
endfacet
facet normal -0.0 -0.0 1.0
outer loop
vertex 13.4156684875488 20.917911529541 5.5
vertex 12.459080696106 19.076244354248 5.5
vertex 13.3827075958252 18.9068393707275 5.5
endloop
endfacet
facet normal -0.0 -0.0 1.0
outer loop
vertex 14.0837697982788 20.8758773803711 5.5
vertex 13.4156684875488 20.917911529541 5.5
vertex 13.3827075958252 18.9068393707275 5.5
endloop
endfacet
facet normal -0.0 -0.0 1.0
outer loop
vertex 14.3214540481567 18.883617401123 5.5
vertex 14.0837697982788 20.8758773803711 5.5
vertex 13.3827075958252 18.9068393707275 5.5
endloop
endfacet
facet normal -0.0 -0.0 1.0
outer loop
vertex 14.7495250701904 20.9458503723145 5.5
vertex 14.0837697982788 20.8758773803711 5.5
vertex 14.3214540481567 18.883617401123 5.5
endloop
endfacet
facet normal -0.0 -0.0 1.0
outer loop
vertex 15.2523279190063 19.0071487426758 5.5
vertex 14.7495250701904 20.9458503723145 5.5
vertex 14.3214540481567 18.883617401123 5.5
endloop
endfacet
facet normal -0.0 -0.0 1.0
outer loop
vertex 15.3942880630493 21.1258716583252 5.5
vertex 14.7495250701904 20.9458503723145 5.5
vertex 15.2523279190063 19.0071487426758 5.5
endloop
endfacet
facet normal -0.0 -0.0 1.0
outer loop
vertex 16.1525249481201 19.2744083404541 5.5
vertex 15.3942880630493 21.1258716583252 5.5
vertex 15.2523279190063 19.0071487426758 5.5
endloop
endfacet
facet normal -0.0 -0.0 1.0
outer loop
vertex 16.1525249481201 19.2744083404541 5.5
vertex 16.0 21.4109001159668 5.5
vertex 15.3942880630493 21.1258716583252 5.5
endloop
endfacet
facet normal -0.0 -0.0 1.0
outer loop
vertex 17.0 19.6788482666016 5.5
vertex 16.0 21.4109001159668 5.5
vertex 16.1525249481201 19.2744083404541 5.5
endloop
endfacet
facet normal -0.0 -0.0 1.0
outer loop
vertex 17.0 19.6788482666016 5.5
vertex 16.1493625640869 21.4813842773437 5.5
vertex 16.0 21.4109001159668 5.5
endloop
endfacet
facet normal -0.0 -0.0 1.0
outer loop
vertex 10.0 20.4028644561768 5.5
vertex 10.0 29.3471374511719 5.5
vertex 4.75 44.875 5.5
endloop
endfacet
facet normal -0.0 -0.0 1.0
outer loop
vertex 10.0 29.3471374511719 5.5
vertex 10.0 20.4028644561768 5.5
vertex 10.0140285491943 24.5402889251709 5.5
endloop
endfacet
facet normal -0.0 -0.0 1.0
outer loop
vertex 10.0 29.3471374511719 5.5
vertex 10.0140285491943 24.5402889251709 5.5
vertex 10.0140285491943 25.2097110748291 5.5
endloop
endfacet
facet normal -0.0 -0.0 1.0
outer loop
vertex 10.0 51.75 5.5
vertex 4.75 44.875 5.5
vertex 10.0 29.3471374511719 5.5
endloop
endfacet
facet normal -0.0 -0.0 1.0
outer loop
vertex 10.0 51.75 5.5
vertex 3.0 44.875 5.5
vertex 4.75 44.875 5.5
endloop
endfacet
facet normal -0.0 -0.0 1.0
outer loop
vertex 10.0 51.75 5.5
vertex 8.75 54.625 5.5
vertex 3.0 44.875 5.5
endloop
endfacet
facet normal -0.0 -0.0 1.0
outer loop
vertex 17.1357250213623 19.7729568481445 5.5
vertex 16.1493625640869 21.4813842773437 5.5
vertex 17.0 19.6788482666016 5.5
endloop
endfacet
facet normal -0.0 -0.0 1.0
outer loop
vertex 17.2541065216064 19.8881225585938 5.5
vertex 16.1493625640869 21.4813842773437 5.5
vertex 17.1357250213623 19.7729568481445 5.5
endloop
endfacet
facet normal -0.0 -0.0 1.0
outer loop
vertex 17.3519191741943 20.0212001800537 5.5
vertex 16.1493625640869 21.4813842773437 5.5
vertex 17.2541065216064 19.8881225585938 5.5
endloop
endfacet
facet normal -0.0 -0.0 1.0
outer loop
vertex 17.4984817504883 20.4897861480713 5.5
vertex 17.4939308166504 20.6548805236816 5.5
vertex 16.1493625640869 21.4813842773437 5.5
endloop
endfacet
facet normal -0.0 -0.0 1.0
outer loop
vertex 17.4939308166504 20.6548805236816 5.5
vertex 17.4622688293457 20.8169765472412 5.5
vertex 16.1493625640869 21.4813842773437 5.5
endloop
endfacet
facet normal -0.0 -0.0 1.0
outer loop
vertex 17.4622688293457 20.8169765472412 5.5
vertex 17.4043579101563 20.9716510772705 5.5
vertex 16.1493625640869 21.4813842773437 5.5
endloop
endfacet
facet normal -0.0 -0.0 1.0
outer loop
vertex 17.4043579101563 20.9716510772705 5.5
vertex 17.3217792510986 21.1146812438965 5.5
vertex 16.1493625640869 21.4813842773437 5.5
endloop
endfacet
facet normal -0.0 -0.0 1.0
outer loop
vertex 17.3217792510986 21.1146812438965 5.5
vertex 17.2167835235596 21.2421703338623 5.5
vertex 16.1493625640869 21.4813842773437 5.5
endloop
endfacet
facet normal -0.0 -0.0 1.0
outer loop
vertex 17.4264945983887 20.1685638427734 5.5
vertex 16.1493625640869 21.4813842773437 5.5
vertex 17.3519191741943 20.0212001800537 5.5
endloop
endfacet
facet normal -0.0 -0.0 1.0
outer loop
vertex 17.4757976531982 20.3261909484863 5.5
vertex 16.1493625640869 21.4813842773437 5.5
vertex 17.4264945983887 20.1685638427734 5.5
endloop
endfacet
facet normal -0.0 -0.0 1.0
outer loop
vertex 17.4984817504883 20.4897861480713 5.5
vertex 16.1493625640869 21.4813842773437 5.5
vertex 17.4757976531982 20.3261909484863 5.5
endloop
endfacet
facet normal -0.0 -0.0 1.0
outer loop
vertex 17.2167835235596 21.2421703338623 5.5
vertex 17.0922355651855 21.3506393432617 5.5
vertex 16.1493625640869 21.4813842773437 5.5
endloop
endfacet
facet normal -0.0 -0.0 1.0
outer loop
vertex 17.0922355651855 21.3506393432617 5.5
vertex 16.9515323638916 21.4371280670166 5.5
vertex 16.1493625640869 21.4813842773437 5.5
endloop
endfacet
facet normal -0.0 -0.0 1.0
outer loop
vertex 16.9515323638916 21.4371280670166 5.5
vertex 16.7985153198242 21.4992771148682 5.5
vertex 16.1493625640869 21.4813842773437 5.5
endloop
endfacet
facet normal -0.0 -0.0 1.0
outer loop
vertex 16.7985153198242 21.4992771148682 5.5
vertex 16.6373538970947 21.5353946685791 5.5
vertex 16.1493625640869 21.4813842773437 5.5
endloop
endfacet
facet normal -0.0 -0.0 1.0
outer loop
vertex 16.6373538970947 21.5353946685791 5.5
vertex 16.3082885742188 21.5263233184814 5.5
vertex 16.1493625640869 21.4813842773437 5.5
endloop
endfacet
facet normal -0.0 -0.0 1.0
outer loop
vertex 16.3082885742188 21.5263233184814 5.5
vertex 16.6373538970947 21.5353946685791 5.5
vertex 16.4724464416504 21.5444946289063 5.5
endloop
endfacet
facet normal -0.0 -0.0 1.0
outer loop
vertex 17.0 30.0711517333984 5.5
vertex 16.1493625640869 28.2686157226563 5.5
vertex 16.3082885742188 28.2236747741699 5.5
endloop
endfacet
facet normal -0.0 -0.0 1.0
outer loop
vertex 10.6683149337769 27.088565826416 5.5
vertex 10.0 29.3471374511719 5.5
vertex 10.3458185195923 26.5019454956055 5.5
endloop
endfacet
facet normal -0.0 -0.0 1.0
outer loop
vertex 11.0841255187988 27.6131896972656 5.5
vertex 10.0 29.3471374511719 5.5
vertex 10.6683149337769 27.088565826416 5.5
endloop
endfacet
facet normal -0.0 -0.0 1.0
outer loop
vertex 11.0841255187988 27.6131896972656 5.5
vertex 10.7467565536499 29.9164695739746 5.5
vertex 10.0 29.3471374511719 5.5
endloop
endfacet
facet normal -0.0 -0.0 1.0
outer loop
vertex 11.5816030502319 28.0611190795898 5.5
vertex 10.7467565536499 29.9164695739746 5.5
vertex 11.0841255187988 27.6131896972656 5.5
endloop
endfacet
facet normal -0.0 -0.0 1.0
outer loop
vertex 11.5816030502319 28.0611190795898 5.5
vertex 11.5731973648071 30.3623161315918 5.5
vertex 10.7467565536499 29.9164695739746 5.5
endloop
endfacet
facet normal -0.0 -0.0 1.0
outer loop
vertex 12.1468152999878 28.4198150634766 5.5
vertex 11.5731973648071 30.3623161315918 5.5
vertex 11.5816030502319 28.0611190795898 5.5
endloop
endfacet
facet normal -0.0 -0.0 1.0
outer loop
vertex 12.459080696106 30.673755645752 5.5
vertex 11.5731973648071 30.3623161315918 5.5
vertex 12.1468152999878 28.4198150634766 5.5
endloop
endfacet
facet normal -0.0 -0.0 1.0
outer loop
vertex 12.7639322280884 28.6792259216309 5.5
vertex 12.459080696106 30.673755645752 5.5
vertex 12.1468152999878 28.4198150634766 5.5
endloop
endfacet
facet normal -0.0 -0.0 1.0
outer loop
vertex 13.3827075958252 30.8431606292725 5.5
vertex 12.459080696106 30.673755645752 5.5
vertex 12.7639322280884 28.6792259216309 5.5
endloop
endfacet
facet normal -0.0 -0.0 1.0
outer loop
vertex 13.4156684875488 28.832088470459 5.5
vertex 13.3827075958252 30.8431606292725 5.5
vertex 12.7639322280884 28.6792259216309 5.5
endloop
endfacet
facet normal -0.0 -0.0 1.0
outer loop
vertex 14.3214540481567 30.866382598877 5.5
vertex 13.3827075958252 30.8431606292725 5.5
vertex 13.4156684875488 28.832088470459 5.5
endloop
endfacet
facet normal -0.0 -0.0 1.0
outer loop
vertex 14.3214540481567 30.866382598877 5.5
vertex 13.4156684875488 28.832088470459 5.5
vertex 14.0837697982788 28.8741226196289 5.5
endloop
endfacet
facet normal -0.0 -0.0 1.0
outer loop
vertex 15.2523279190063 30.7428512573242 5.5
vertex 14.3214540481567 30.866382598877 5.5
vertex 14.0837697982788 28.8741226196289 5.5
endloop
endfacet
facet normal -0.0 -0.0 1.0
outer loop
vertex 15.2523279190063 30.7428512573242 5.5
vertex 14.0837697982788 28.8741226196289 5.5
vertex 14.7495250701904 28.8041496276855 5.5
endloop
endfacet
facet normal -0.0 -0.0 1.0
outer loop
vertex 16.1525249481201 30.4755916595459 5.5
vertex 15.2523279190063 30.7428512573242 5.5
vertex 14.7495250701904 28.8041496276855 5.5
endloop
endfacet
facet normal -0.0 -0.0 1.0
outer loop
vertex 16.1525249481201 30.4755916595459 5.5
vertex 14.7495250701904 28.8041496276855 5.5
vertex 15.3942880630493 28.6241283416748 5.5
endloop
endfacet
facet normal -0.0 -0.0 1.0
outer loop
vertex 17.0 30.0711517333984 5.5
vertex 16.1525249481201 30.4755916595459 5.5
vertex 15.3942880630493 28.6241283416748 5.5
endloop
endfacet
facet normal -0.0 -0.0 1.0
outer loop
vertex 17.0 30.0711517333984 5.5
vertex 15.3942880630493 28.6241283416748 5.5
vertex 16.0 28.3391017913818 5.5
endloop
endfacet
facet normal -0.0 -0.0 1.0
outer loop
vertex 17.0 30.0711517333984 5.5
vertex 16.0 28.3391017913818 5.5
vertex 16.1493625640869 28.2686157226563 5.5
endloop
endfacet
facet normal -0.0 -0.0 1.0
outer loop
vertex 17.0 30.0711517333984 5.5
vertex 16.3082885742188 28.2236747741699 5.5
vertex 16.4724464416504 28.2055072784424 5.5
endloop
endfacet
facet normal -0.0 -0.0 1.0
outer loop
vertex 17.0 30.0711517333984 5.5
vertex 16.4724464416504 28.2055072784424 5.5
vertex 16.6373538970947 28.2146053314209 5.5
endloop
endfacet
facet normal -0.0 -0.0 1.0
outer loop
vertex 17.0 30.0711517333984 5.5
vertex 16.6373538970947 28.2146053314209 5.5
vertex 16.7985153198242 28.2507228851318 5.5
endloop
endfacet
facet normal -0.0 -0.0 1.0
outer loop
vertex 17.0 30.0711517333984 5.5
vertex 16.7985153198242 28.2507228851318 5.5
vertex 16.9515323638916 28.312873840332 5.5
endloop
endfacet
facet normal -0.0 -0.0 1.0
outer loop
vertex 17.0922355651855 28.3993606567383 5.5
vertex 17.0 30.0711517333984 5.5
vertex 16.9515323638916 28.312873840332 5.5
endloop
endfacet
facet normal -0.0 -0.0 1.0
outer loop
vertex 17.2167835235596 28.5078296661377 5.5
vertex 17.0 30.0711517333984 5.5
vertex 17.0922355651855 28.3993606567383 5.5
endloop
endfacet
facet normal -0.0 -0.0 1.0
outer loop
vertex 17.3217792510986 28.6353187561035 5.5
vertex 17.0 30.0711517333984 5.5
vertex 17.2167835235596 28.5078296661377 5.5
endloop
endfacet
facet normal -0.0 -0.0 1.0
outer loop
vertex 17.4043579101563 28.7783508300781 5.5
vertex 17.0 30.0711517333984 5.5
vertex 17.3217792510986 28.6353187561035 5.5
endloop
endfacet
facet normal -0.0 -0.0 1.0
outer loop
vertex 17.4622688293457 28.9330234527588 5.5
vertex 17.0 30.0711517333984 5.5
vertex 17.4043579101563 28.7783508300781 5.5
endloop
endfacet
facet normal -0.0 -0.0 1.0
outer loop
vertex 17.4939308166504 29.0951194763184 5.5
vertex 17.0 30.0711517333984 5.5
vertex 17.4622688293457 28.9330234527588 5.5
endloop
endfacet
facet normal -0.0 -0.0 1.0
outer loop
vertex 17.4984817504883 29.2602138519287 5.5
vertex 17.0 30.0711517333984 5.5
vertex 17.4939308166504 29.0951194763184 5.5
endloop
endfacet
facet normal -0.0 -0.0 1.0
outer loop
vertex 17.4984817504883 29.2602138519287 5.5
vertex 17.1357250213623 29.9770431518555 5.5
vertex 17.0 30.0711517333984 5.5
endloop
endfacet
facet normal -0.0 -0.0 1.0
outer loop
vertex 17.4984817504883 29.2602138519287 5.5
vertex 17.2541065216064 29.8618793487549 5.5
vertex 17.1357250213623 29.9770431518555 5.5
endloop
endfacet
facet normal -0.0 -0.0 1.0
outer loop
vertex 17.4984817504883 29.2602138519287 5.5
vertex 17.4757976531982 29.4238090515137 5.5
vertex 17.2541065216064 29.8618793487549 5.5
endloop
endfacet
facet normal -0.0 -0.0 1.0
outer loop
vertex 17.4757976531982 29.4238090515137 5.5
vertex 17.3519191741943 29.7287998199463 5.5
vertex 17.2541065216064 29.8618793487549 5.5
endloop
endfacet
facet normal -0.0 -0.0 1.0
outer loop
vertex 17.3519191741943 29.7287998199463 5.5
vertex 17.4757976531982 29.4238090515137 5.5
vertex 17.4264945983887 29.5814361572266 5.5
endloop
endfacet
facet normal 0.0 0.0 -1.0
outer loop
vertex 10.0 2.0 0.0
vertex 5.82747063359581e-015 2.0 0.0
vertex 10.0 20.4028644561768 0.0
endloop
endfacet
facet normal 0.0 0.0 -1.0
outer loop
vertex 15.0 51.75 0.0
vertex 8.75 54.625 0.0
vertex 15.0 54.625 0.0
endloop
endfacet
facet normal 0.0 0.0 -1.0
outer loop
vertex 15.0 51.75 0.0
vertex 10.0 51.75 0.0
vertex 8.75 54.625 0.0
endloop
endfacet
facet normal 0.0 0.0 -1.0
outer loop
vertex 10.0 29.3471374511719 0.0
vertex 10.0 20.4028644561768 0.0
vertex 8.75 54.625 0.0
endloop
endfacet
facet normal 0.0 0.0 -1.0
outer loop
vertex 10.0 20.4028644561768 0.0
vertex 10.0 29.3471374511719 0.0
vertex 10.0140285491943 25.2097110748291 0.0
endloop
endfacet
facet normal 0.0 0.0 -1.0
outer loop
vertex 10.0 20.4028644561768 0.0
vertex 10.0140285491943 25.2097110748291 0.0
vertex 10.0140285491943 24.5402889251709 0.0
endloop
endfacet
facet normal 0.0 0.0 -1.0
outer loop
vertex 10.0 29.3471374511719 0.0
vertex 8.75 54.625 0.0
vertex 10.0 51.75 0.0
endloop
endfacet
facet normal 0.0 0.0 -1.0
outer loop
vertex 17.4984817504883 20.4897861480713 0.0
vertex 17.4757976531982 20.3261909484863 0.0
vertex 16.0 21.4109001159668 0.0
endloop
endfacet
facet normal 0.0 0.0 -1.0
outer loop
vertex 10.6683149337769 27.088565826416 0.0
vertex 10.3458185195923 26.5019454956055 0.0
vertex 10.0 29.3471374511719 0.0
endloop
endfacet
facet normal 0.0 0.0 -1.0
outer loop
vertex 10.3458185195923 26.5019454956055 0.0
vertex 10.1256675720215 25.869758605957 0.0
vertex 10.0 29.3471374511719 0.0
endloop
endfacet
facet normal 0.0 0.0 -1.0
outer loop
vertex 10.1256675720215 25.869758605957 0.0
vertex 10.0140285491943 25.2097110748291 0.0
vertex 10.0 29.3471374511719 0.0
endloop
endfacet
facet normal 0.0 0.0 -1.0
outer loop
vertex 10.1256675720215 23.8802394866943 0.0
vertex 10.0 20.4028644561768 0.0
vertex 10.0140285491943 24.5402889251709 0.0
endloop
endfacet
facet normal 0.0 0.0 -1.0
outer loop
vertex 10.3458185195923 23.2480545043945 0.0
vertex 10.0 20.4028644561768 0.0
vertex 10.1256675720215 23.8802394866943 0.0
endloop
endfacet
facet normal 0.0 0.0 -1.0
outer loop
vertex 17.4043579101563 20.9716510772705 0.0
vertex 16.0 21.4109001159668 0.0
vertex 17.3217792510986 21.1146812438965 0.0
endloop
endfacet
facet normal 0.0 0.0 -1.0
outer loop
vertex 17.3217792510986 21.1146812438965 0.0
vertex 16.0 21.4109001159668 0.0
vertex 17.2167835235596 21.2421703338623 0.0
endloop
endfacet
facet normal 0.0 0.0 -1.0
outer loop
vertex 17.4622688293457 20.8169765472412 0.0
vertex 16.0 21.4109001159668 0.0
vertex 17.4043579101563 20.9716510772705 0.0
endloop
endfacet
facet normal 0.0 0.0 -1.0
outer loop
vertex 17.4939308166504 20.6548805236816 0.0
vertex 16.0 21.4109001159668 0.0
vertex 17.4622688293457 20.8169765472412 0.0
endloop
endfacet
facet normal 0.0 0.0 -1.0
outer loop
vertex 17.4984817504883 20.4897861480713 0.0
vertex 16.0 21.4109001159668 0.0
vertex 17.4939308166504 20.6548805236816 0.0
endloop
endfacet
facet normal 0.0 0.0 -1.0
outer loop
vertex 17.1357250213623 29.9770431518555 0.0
vertex 16.3082885742188 28.2236747741699 0.0
vertex 17.0 30.0711517333984 0.0
endloop
endfacet
facet normal 0.0 0.0 -1.0
outer loop
vertex 17.4939308166504 29.0951194763184 0.0
vertex 17.4622688293457 28.9330234527588 0.0
vertex 16.3082885742188 28.2236747741699 0.0
endloop
endfacet
facet normal 0.0 0.0 -1.0
outer loop
vertex 17.4622688293457 28.9330234527588 0.0
vertex 17.4043579101563 28.7783508300781 0.0
vertex 16.3082885742188 28.2236747741699 0.0
endloop
endfacet
facet normal 0.0 0.0 -1.0
outer loop
vertex 17.4043579101563 28.7783508300781 0.0
vertex 17.3217792510986 28.6353187561035 0.0
vertex 16.3082885742188 28.2236747741699 0.0
endloop
endfacet
facet normal 0.0 0.0 -1.0
outer loop
vertex 17.3217792510986 28.6353187561035 0.0
vertex 17.2167835235596 28.5078296661377 0.0
vertex 16.3082885742188 28.2236747741699 0.0
endloop
endfacet
facet normal 0.0 0.0 -1.0
outer loop
vertex 17.2167835235596 28.5078296661377 0.0
vertex 17.0922355651855 28.3993606567383 0.0
vertex 16.3082885742188 28.2236747741699 0.0
endloop
endfacet
facet normal 0.0 0.0 -1.0
outer loop
vertex 17.0922355651855 28.3993606567383 0.0
vertex 16.9515323638916 28.312873840332 0.0
vertex 16.3082885742188 28.2236747741699 0.0
endloop
endfacet
facet normal 0.0 0.0 -1.0
outer loop
vertex 16.9515323638916 28.312873840332 0.0
vertex 16.7985153198242 28.2507228851318 0.0
vertex 16.3082885742188 28.2236747741699 0.0
endloop
endfacet
facet normal 0.0 0.0 -1.0
outer loop
vertex 16.7985153198242 28.2507228851318 0.0
vertex 16.4724464416504 28.2055072784424 0.0
vertex 16.3082885742188 28.2236747741699 0.0
endloop
endfacet
facet normal 0.0 0.0 -1.0
outer loop
vertex 16.4724464416504 28.2055072784424 0.0
vertex 16.7985153198242 28.2507228851318 0.0
vertex 16.6373538970947 28.2146053314209 0.0
endloop
endfacet
facet normal 0.0 0.0 -1.0
outer loop
vertex 17.0 30.0711517333984 0.0
vertex 16.3082885742188 28.2236747741699 0.0
vertex 16.1493625640869 28.2686157226563 0.0
endloop
endfacet
facet normal 0.0 0.0 -1.0
outer loop
vertex 17.0 30.0711517333984 0.0
vertex 16.1493625640869 28.2686157226563 0.0
vertex 16.0 28.3391017913818 0.0
endloop
endfacet
facet normal 0.0 0.0 -1.0
outer loop
vertex 17.0 30.0711517333984 0.0
vertex 16.0 28.3391017913818 0.0
vertex 16.1525249481201 30.4755916595459 0.0
endloop
endfacet
facet normal 0.0 0.0 -1.0
outer loop
vertex 16.1525249481201 30.4755916595459 0.0
vertex 16.0 28.3391017913818 0.0
vertex 15.3942880630493 28.6241283416748 0.0
endloop
endfacet
facet normal 0.0 0.0 -1.0
outer loop
vertex 16.1525249481201 30.4755916595459 0.0
vertex 15.3942880630493 28.6241283416748 0.0
vertex 15.2523279190063 30.7428512573242 0.0
endloop
endfacet
facet normal 0.0 0.0 -1.0
outer loop
vertex 15.3942880630493 28.6241283416748 0.0
vertex 14.7495250701904 28.8041496276855 0.0
vertex 15.2523279190063 30.7428512573242 0.0
endloop
endfacet
facet normal 0.0 0.0 -1.0
outer loop
vertex 15.2523279190063 30.7428512573242 0.0
vertex 14.7495250701904 28.8041496276855 0.0
vertex 14.3214540481567 30.866382598877 0.0
endloop
endfacet
facet normal 0.0 0.0 -1.0
outer loop
vertex 14.7495250701904 28.8041496276855 0.0
vertex 14.0837697982788 28.8741226196289 0.0
vertex 14.3214540481567 30.866382598877 0.0
endloop
endfacet
facet normal 0.0 0.0 -1.0
outer loop
vertex 14.3214540481567 30.866382598877 0.0
vertex 14.0837697982788 28.8741226196289 0.0
vertex 13.3827075958252 30.8431606292725 0.0
endloop
endfacet
facet normal 0.0 0.0 -1.0
outer loop
vertex 14.0837697982788 28.8741226196289 0.0
vertex 13.4156684875488 28.832088470459 0.0
vertex 13.3827075958252 30.8431606292725 0.0
endloop
endfacet
facet normal 0.0 0.0 -1.0
outer loop
vertex 13.4156684875488 28.832088470459 0.0
vertex 12.459080696106 30.673755645752 0.0
vertex 13.3827075958252 30.8431606292725 0.0
endloop
endfacet
facet normal 0.0 0.0 -1.0
outer loop
vertex 13.4156684875488 28.832088470459 0.0
vertex 12.7639322280884 28.6792259216309 0.0
vertex 12.459080696106 30.673755645752 0.0
endloop
endfacet
facet normal 0.0 0.0 -1.0
outer loop
vertex 12.7639322280884 28.6792259216309 0.0
vertex 11.5731973648071 30.3623161315918 0.0
vertex 12.459080696106 30.673755645752 0.0
endloop
endfacet
facet normal 0.0 0.0 -1.0
outer loop
vertex 12.7639322280884 28.6792259216309 0.0
vertex 12.1468152999878 28.4198150634766 0.0
vertex 11.5731973648071 30.3623161315918 0.0
endloop
endfacet
facet normal 0.0 0.0 -1.0
outer loop
vertex 12.1468152999878 28.4198150634766 0.0
vertex 10.7467565536499 29.9164695739746 0.0
vertex 11.5731973648071 30.3623161315918 0.0
endloop
endfacet
facet normal 0.0 0.0 -1.0
outer loop
vertex 12.1468152999878 28.4198150634766 0.0
vertex 11.5816030502319 28.0611190795898 0.0
vertex 10.7467565536499 29.9164695739746 0.0
endloop
endfacet
facet normal 0.0 0.0 -1.0
outer loop
vertex 11.5816030502319 28.0611190795898 0.0
vertex 10.0 29.3471374511719 0.0
vertex 10.7467565536499 29.9164695739746 0.0
endloop
endfacet
facet normal 0.0 0.0 -1.0
outer loop
vertex 11.5816030502319 28.0611190795898 0.0
vertex 11.0841255187988 27.6131896972656 0.0
vertex 10.0 29.3471374511719 0.0
endloop
endfacet
facet normal 0.0 0.0 -1.0
outer loop
vertex 11.0841255187988 27.6131896972656 0.0
vertex 10.6683149337769 27.088565826416 0.0
vertex 10.0 29.3471374511719 0.0
endloop
endfacet
facet normal 0.0 0.0 -1.0
outer loop
vertex 17.2541065216064 19.8881225585938 0.0
vertex 17.1357250213623 19.7729568481445 0.0
vertex 16.0 21.4109001159668 0.0
endloop
endfacet
facet normal 0.0 0.0 -1.0
outer loop
vertex 17.1357250213623 19.7729568481445 0.0
vertex 17.0 19.6788482666016 0.0
vertex 16.0 21.4109001159668 0.0
endloop
endfacet
facet normal 0.0 0.0 -1.0
outer loop
vertex 17.0 19.6788482666016 0.0
vertex 15.3942880630493 21.1258716583252 0.0
vertex 16.0 21.4109001159668 0.0
endloop
endfacet
facet normal 0.0 0.0 -1.0
outer loop
vertex 17.0 19.6788482666016 0.0
vertex 16.1525249481201 19.2744083404541 0.0
vertex 15.3942880630493 21.1258716583252 0.0
endloop
endfacet
facet normal 0.0 0.0 -1.0
outer loop
vertex 16.1525249481201 19.2744083404541 0.0
vertex 14.7495250701904 20.9458503723145 0.0
vertex 15.3942880630493 21.1258716583252 0.0
endloop
endfacet
facet normal 0.0 0.0 -1.0
outer loop
vertex 16.1525249481201 19.2744083404541 0.0
vertex 15.2523279190063 19.0071487426758 0.0
vertex 14.7495250701904 20.9458503723145 0.0
endloop
endfacet
facet normal 0.0 0.0 -1.0
outer loop
vertex 15.2523279190063 19.0071487426758 0.0
vertex 14.0837697982788 20.8758773803711 0.0
vertex 14.7495250701904 20.9458503723145 0.0
endloop
endfacet
facet normal 0.0 0.0 -1.0
outer loop
vertex 15.2523279190063 19.0071487426758 0.0
vertex 14.3214540481567 18.883617401123 0.0
vertex 14.0837697982788 20.8758773803711 0.0
endloop
endfacet
facet normal 0.0 0.0 -1.0
outer loop
vertex 14.3214540481567 18.883617401123 0.0
vertex 13.4156684875488 20.917911529541 0.0
vertex 14.0837697982788 20.8758773803711 0.0
endloop
endfacet
facet normal 0.0 0.0 -1.0
outer loop
vertex 14.3214540481567 18.883617401123 0.0
vertex 13.3827075958252 18.9068393707275 0.0
vertex 13.4156684875488 20.917911529541 0.0
endloop
endfacet
facet normal 0.0 0.0 -1.0
outer loop
vertex 13.4156684875488 20.917911529541 0.0
vertex 13.3827075958252 18.9068393707275 0.0
vertex 12.7639322280884 21.0707740783691 0.0
endloop
endfacet
facet normal 0.0 0.0 -1.0
outer loop
vertex 13.3827075958252 18.9068393707275 0.0
vertex 12.459080696106 19.076244354248 0.0
vertex 12.7639322280884 21.0707740783691 0.0
endloop
endfacet
facet normal 0.0 0.0 -1.0
outer loop
vertex 12.7639322280884 21.0707740783691 0.0
vertex 12.459080696106 19.076244354248 0.0
vertex 12.1468152999878 21.3301849365234 0.0
endloop
endfacet
facet normal 0.0 0.0 -1.0
outer loop
vertex 12.459080696106 19.076244354248 0.0
vertex 11.5731973648071 19.3876838684082 0.0
vertex 12.1468152999878 21.3301849365234 0.0
endloop
endfacet
facet normal 0.0 0.0 -1.0
outer loop
vertex 12.1468152999878 21.3301849365234 0.0
vertex 11.5731973648071 19.3876838684082 0.0
vertex 11.5816030502319 21.6888809204102 0.0
endloop
endfacet
facet normal 0.0 0.0 -1.0
outer loop
vertex 11.5816030502319 21.6888809204102 0.0
vertex 11.5731973648071 19.3876838684082 0.0
vertex 10.7467565536499 19.8335304260254 0.0
endloop
endfacet
facet normal 0.0 0.0 -1.0
outer loop
vertex 11.5816030502319 21.6888809204102 0.0
vertex 10.7467565536499 19.8335304260254 0.0
vertex 11.0841255187988 22.1368103027344 0.0
endloop
endfacet
facet normal 0.0 0.0 -1.0
outer loop
vertex 11.0841255187988 22.1368103027344 0.0
vertex 10.7467565536499 19.8335304260254 0.0
vertex 10.0 20.4028644561768 0.0
endloop
endfacet
facet normal 0.0 0.0 -1.0
outer loop
vertex 11.0841255187988 22.1368103027344 0.0
vertex 10.0 20.4028644561768 0.0
vertex 10.6683149337769 22.661434173584 0.0
endloop
endfacet
facet normal 0.0 0.0 -1.0
outer loop
vertex 10.6683149337769 22.661434173584 0.0
vertex 10.0 20.4028644561768 0.0
vertex 10.3458185195923 23.2480545043945 0.0
endloop
endfacet
facet normal 0.0 0.0 -1.0
outer loop
vertex 17.4757976531982 20.3261909484863 0.0
vertex 17.4264945983887 20.1685638427734 0.0
vertex 16.0 21.4109001159668 0.0
endloop
endfacet
facet normal 0.0 0.0 -1.0
outer loop
vertex 17.4264945983887 20.1685638427734 0.0
vertex 17.3519191741943 20.0212001800537 0.0
vertex 16.0 21.4109001159668 0.0
endloop
endfacet
facet normal 0.0 0.0 -1.0
outer loop
vertex 17.3519191741943 20.0212001800537 0.0
vertex 17.2541065216064 19.8881225585938 0.0
vertex 16.0 21.4109001159668 0.0
endloop
endfacet
facet normal 0.0 0.0 -1.0
outer loop
vertex 17.2541065216064 29.8618793487549 0.0
vertex 16.3082885742188 28.2236747741699 0.0
vertex 17.1357250213623 29.9770431518555 0.0
endloop
endfacet
facet normal 0.0 0.0 -1.0
outer loop
vertex 17.3519191741943 29.7287998199463 0.0
vertex 16.3082885742188 28.2236747741699 0.0
vertex 17.2541065216064 29.8618793487549 0.0
endloop
endfacet
facet normal 0.0 0.0 -1.0
outer loop
vertex 17.4264945983887 29.5814361572266 0.0
vertex 16.3082885742188 28.2236747741699 0.0
vertex 17.3519191741943 29.7287998199463 0.0
endloop
endfacet
facet normal 0.0 0.0 -1.0
outer loop
vertex 17.4757976531982 29.4238090515137 0.0
vertex 16.3082885742188 28.2236747741699 0.0
vertex 17.4264945983887 29.5814361572266 0.0
endloop
endfacet
facet normal 0.0 0.0 -1.0
outer loop
vertex 17.4984817504883 29.2602138519287 0.0
vertex 16.3082885742188 28.2236747741699 0.0
vertex 17.4757976531982 29.4238090515137 0.0
endloop
endfacet
facet normal 0.0 0.0 -1.0
outer loop
vertex 17.4984817504883 29.2602138519287 0.0
vertex 17.4939308166504 29.0951194763184 0.0
vertex 16.3082885742188 28.2236747741699 0.0
endloop
endfacet
facet normal 0.0 0.0 -1.0
outer loop
vertex 16.3082885742188 21.5263233184814 0.0
vertex 16.6373538970947 21.5353946685791 0.0
vertex 16.1493625640869 21.4813842773437 0.0
endloop
endfacet
facet normal 0.0 0.0 -1.0
outer loop
vertex 16.6373538970947 21.5353946685791 0.0
vertex 16.3082885742188 21.5263233184814 0.0
vertex 16.4724464416504 21.5444946289063 0.0
endloop
endfacet
facet normal 0.0 0.0 -1.0
outer loop
vertex 16.7985153198242 21.4992771148682 0.0
vertex 16.1493625640869 21.4813842773437 0.0
vertex 16.6373538970947 21.5353946685791 0.0
endloop
endfacet
facet normal 0.0 0.0 -1.0
outer loop
vertex 16.9515323638916 21.4371280670166 0.0
vertex 16.1493625640869 21.4813842773437 0.0
vertex 16.7985153198242 21.4992771148682 0.0
endloop
endfacet
facet normal 0.0 0.0 -1.0
outer loop
vertex 16.9515323638916 21.4371280670166 0.0
vertex 16.0 21.4109001159668 0.0
vertex 16.1493625640869 21.4813842773437 0.0
endloop
endfacet
facet normal 0.0 0.0 -1.0
outer loop
vertex 17.0922355651855 21.3506393432617 0.0
vertex 16.0 21.4109001159668 0.0
vertex 16.9515323638916 21.4371280670166 0.0
endloop
endfacet
facet normal 0.0 0.0 -1.0
outer loop
vertex 17.2167835235596 21.2421703338623 0.0
vertex 16.0 21.4109001159668 0.0
vertex 17.0922355651855 21.3506393432617 0.0
endloop
endfacet
facet normal 1.0 -0.0 -0.0
outer loop
vertex 3.0 44.875 1.0
vertex 3.0 4.875 5.5
vertex 3.0 4.875 1.0
endloop
endfacet
facet normal 1.0 -0.0 -0.0
outer loop
vertex 3.0 44.875 5.5
vertex 3.0 4.875 5.5
vertex 3.0 44.875 1.0
endloop
endfacet
facet normal 0.0 -1.0 0.0
outer loop
vertex 3.0 44.875 5.5
vertex 3.0 44.875 1.0
vertex 4.75 44.875 1.0
endloop
endfacet
facet normal 0.0 -1.0 0.0
outer loop
vertex 3.0 44.875 5.5
vertex 4.75 44.875 1.0
vertex 4.75 44.875 5.5
endloop
endfacet
facet normal -1.0 0.0 0.0
outer loop
vertex 4.75 44.875 1.0
vertex 4.75 4.875 1.0
vertex 4.75 44.875 5.5
endloop
endfacet
facet normal -1.0 0.0 0.0
outer loop
vertex 4.75 44.875 5.5
vertex 4.75 4.875 1.0
vertex 4.75 4.875 5.5
endloop
endfacet
facet normal -0.0 1.0 -0.0
outer loop
vertex 4.75 4.875 5.5
vertex 4.75 4.875 1.0
vertex 3.0 4.875 1.0
endloop
endfacet
facet normal -0.0 1.0 -0.0
outer loop
vertex 4.75 4.875 5.5
vertex 3.0 4.875 1.0
vertex 3.0 4.875 5.5
endloop
endfacet
facet normal -0.0 -0.0 1.0
outer loop
vertex 4.75 44.875 1.0
vertex 3.0 4.875 1.0
vertex 4.75 4.875 1.0
endloop
endfacet
facet normal -0.0 -0.0 1.0
outer loop
vertex 4.75 44.875 1.0
vertex 3.0 44.875 1.0
vertex 3.0 4.875 1.0
endloop
endfacet
facet normal 1.0 -0.0 -0.0
outer loop
vertex 8.75 57.875 0.0
vertex 8.75 54.625 5.5
vertex 8.75 54.625 0.0
endloop
endfacet
facet normal 1.0 -0.0 -0.0
outer loop
vertex 8.75 54.625 5.5
vertex 8.75 57.875 0.0
vertex 8.75 57.875 5.5
endloop
endfacet
facet normal 0.0 -1.0 0.0
outer loop
vertex 15.0 57.875 5.5
vertex 8.75 57.875 0.0
vertex 15.0 57.875 0.0
endloop
endfacet
facet normal 0.0 -1.0 0.0
outer loop
vertex 8.75 57.875 0.0
vertex 15.0 57.875 5.5
vertex 8.75 57.875 5.5
endloop
endfacet
facet normal 1.0 -0.0 -0.0
outer loop
vertex 15.0 54.625 5.5
vertex 15.0 51.75 5.5
vertex 15.0 54.625 0.0
endloop
endfacet
facet normal -0.0 1.0 -0.0
outer loop
vertex 15.0 54.625 5.5
vertex 15.0 54.625 0.0
vertex 8.75 54.625 0.0
endloop
endfacet
facet normal -0.0 -0.0 1.0
outer loop
vertex 1.40378341173665e-016 60.775 5.5
vertex 8.75 57.875 5.5
vertex 15.0 60.775 5.5
endloop
endfacet
facet normal -0.0 -0.0 1.0
outer loop
vertex 8.75 57.875 5.5
vertex 1.40378341173665e-016 60.775 5.5
vertex 3.0 44.875 5.5
endloop
endfacet
facet normal -0.0 -0.0 1.0
outer loop
vertex 3.0 44.875 5.5
vertex 1.40378341173665e-016 60.775 5.5
vertex 5.82747063359581e-015 2.0 5.5
endloop
endfacet
facet normal -0.0 -0.0 1.0
outer loop
vertex 8.75 57.875 5.5
vertex 3.0 44.875 5.5
vertex 8.75 54.625 5.5
endloop
endfacet
facet normal -0.0 -0.0 1.0
outer loop
vertex 15.0 60.775 5.5
vertex 8.75 57.875 5.5
vertex 15.0 57.875 5.5
endloop
endfacet
facet normal -0.0 1.0 -0.0
outer loop
vertex 1.40378341173665e-016 60.775 5.5
vertex 0.686319860049883 60.775 -1.76247905159244e-016
vertex 1.40378341173665e-016 60.775 -3.52495810318487e-016
endloop
endfacet
facet normal -0.0 1.0 -0.0
outer loop
vertex 0.686319860049883 60.775 -1.76247905159244e-016
vertex 1.40378341173665e-016 60.775 5.5
vertex 2.85273972602741 60.775 -1.76247905159244e-016
endloop
endfacet
facet normal -0.0 1.0 -0.0
outer loop
vertex 2.85273972602741 60.775 -1.76247905159244e-016
vertex 1.40378341173665e-016 60.775 5.5
vertex 8.75 60.775 -1.76247905159244e-016
endloop
endfacet
facet normal -0.0 1.0 -0.0
outer loop
vertex 8.75 60.775 -1.76247905159244e-016
vertex 15.0 60.775 5.5
vertex 15.0 60.775 -3.52495810318487e-016
endloop
endfacet
facet normal -0.0 1.0 -0.0
outer loop
vertex 15.0 60.775 5.5
vertex 8.75 60.775 -1.76247905159244e-016
vertex 1.40378341173665e-016 60.775 5.5
endloop
endfacet
facet normal 9.27354432851174e-018 -4.49900228122837e-018 -1.0
outer loop
vertex 0.686319860049883 60.775 -1.76247905159244e-016
vertex 5.82747063359581e-015 2.0 0.0
vertex 1.40378341173665e-016 60.775 -3.52495810318487e-016
endloop
endfacet
facet normal 9.27354432851174e-018 -4.49900228122837e-018 -1.0
outer loop
vertex 5.82747063359581e-015 2.0 0.0
vertex 0.686319860049883 60.775 -1.76247905159244e-016
vertex 10.0 20.4028644561768 0.0
endloop
endfacet
facet normal 2.37398018192434e-017 5.39555629469041e-019 -1.0
outer loop
vertex 2.85273972602741 60.775 -1.76247905159244e-016
vertex 10.0 20.4028644561768 0.0
vertex 0.686319860049883 60.775 -1.76247905159244e-016
endloop
endfacet
facet normal 2.37398018192434e-017 5.39555629469041e-019 -1.0
outer loop
vertex 10.0 20.4028644561768 0.0
vertex 2.85273972602741 60.775 -1.76247905159244e-016
vertex 8.75 54.625 0.0
endloop
endfacet
facet normal -1.40998324127395e-017 -9.11627095651262e-017 -1.0
outer loop
vertex 15.0 60.775 -3.52495810318487e-016
vertex 8.75 57.875 0.0
vertex 8.75 60.775 -1.76247905159244e-016
endloop
endfacet
facet normal -1.40998324127395e-017 -9.11627095651262e-017 -1.0
outer loop
vertex 8.75 57.875 0.0
vertex 15.0 60.775 -3.52495810318487e-016
vertex 15.0 57.875 0.0
endloop
endfacet
facet normal 5.55815029569126e-018 -2.80842246974409e-017 -1.0
outer loop
vertex 8.75 60.775 -1.76247905159244e-016
vertex 8.75 54.625 0.0
vertex 2.85273972602741 60.775 -1.76247905159244e-016
endloop
endfacet
facet normal 5.55815029569126e-018 -2.80842246974409e-017 -1.0
outer loop
vertex 8.75 54.625 0.0
vertex 8.75 60.775 -1.76247905159244e-016
vertex 8.75 57.875 0.0
endloop
endfacet
endsolid Endstop_Z_3mm
